<svg id="Capa_1" enable-background="new 0 0 512 512" height="512" viewBox="0 0 512 512" width="512" xmlns="http://www.w3.org/2000/svg"><g id="XMLID_2481_"><g id="XMLID_2180_"><circle id="XMLID_2185_" cx="236" cy="236" fill="#91def5" r="226"/><ellipse id="XMLID_2184_" cx="236" cy="236" fill="#cff1fb" rx="86.843" ry="226"/></g><g id="XMLID_2252_"><path id="XMLID_2256_" d="m502 291.811c0-53.019-42.981-96-96-96s-96 42.981-96 96c0 45.449 31.584 83.518 74 93.464v32.725h-34v44h34v40h44v-40h34v-44h-34v-32.725c42.416-9.946 74-48.015 74-93.464zm-147.937-.063c0-28.638 23.299-51.937 51.937-51.937s51.937 23.299 51.937 51.937-23.299 51.936-51.937 51.936-51.937-23.299-51.937-51.936z" fill="#f5737f"/></g><g id="XMLID_503_"><g id="XMLID_504_"><path id="XMLID_509_" d="m470.302 207.603c-6.096-50.608-28.861-98.544-64.398-135.398-3.833-3.976-10.165-4.09-14.14-.257-3.976 3.834-4.091 10.165-.257 14.14 8.083 8.383 15.437 17.396 22.022 26.913h-94.347c-3.515-14.443-7.673-27.989-12.44-40.393-7.686-20.002-16.677-36.15-26.605-48.104 14.006 2.907 27.692 7.21 40.96 12.903 5.077 2.18 10.955-.172 13.133-5.246 2.178-5.076-.171-10.956-5.246-13.133-29.423-12.627-60.708-19.028-92.984-19.028-63.038 0-122.303 24.548-166.877 69.123-44.575 44.574-69.123 103.839-69.123 166.877s24.548 122.303 69.123 166.877c44.574 44.575 103.839 69.123 166.877 69.123 36.175 0 71.793-8.299 104-24.11v14.11c0 5.523 4.478 10 10 10h24v30c0 5.523 4.478 10 10 10h44c5.522 0 10-4.477 10-10v-30h24c5.522 0 10-4.477 10-10v-44c0-5.523-4.478-10-10-10h-24v-15.116c19.807-6.288 37.596-18.437 50.704-34.768 15.023-18.714 23.296-42.262 23.296-66.305 0-34.288-16.369-64.82-41.698-84.208zm-44.47-74.603c10.433 19.228 17.935 39.994 22.154 61.49-12.882-5.579-27.078-8.679-41.986-8.679-28.517 0-54.437 11.323-73.508 29.705-.979-28.974-4.028-56.868-8.967-82.516zm-189.832 319c-18.494 0-37.474-21.789-52.072-59.781-3.948-10.274-7.456-21.4-10.502-33.219h125.138c-6.084 23.724-13.881 44.117-23.031 60.035-12.22 21.258-26.26 32.965-39.533 32.965zm64-160.189c0 11.563 1.932 23.005 5.59 33.856-.77 4.527-1.589 8.977-2.467 13.333h-134.276c-5.75-28.454-9.046-60.053-9.602-93h151.175c-6.676 13.873-10.42 29.413-10.42 45.811zm-279.76-45.811h119.004c.537 32.726 3.699 64.271 9.231 93h-102.296c-15.188-27.878-24.403-59.454-25.939-93zm25.939-113h102.296c-5.532 28.729-8.694 60.274-9.231 93h-119.004c1.536-33.546 10.751-65.122 25.939-93zm266.576 93h-153.51c.555-32.947 3.851-64.546 9.602-93h134.306c5.75 28.454 9.046 60.053 9.602 93zm-24.683-146.219c3.948 10.274 7.456 21.4 10.502 33.219h-125.149c3.047-11.819 6.554-22.945 10.502-33.219 14.599-37.992 33.579-59.781 52.073-59.781s37.474 21.789 52.072 59.781zm-96.246-55.233c-9.913 11.949-18.891 28.082-26.568 48.059-4.767 12.404-8.925 25.95-12.44 40.393h-94.271c30.997-44.584 78.337-76.988 133.279-88.452zm-133.279 334.452h94.272c3.515 14.443 7.673 27.989 12.44 40.393 7.676 19.977 16.654 36.109 26.568 48.059-54.943-11.464-102.283-43.868-133.28-88.452zm221.614 88.447c16.8-20.221 30.746-52.21 40.151-93.246.965 1.326 1.955 2.634 2.984 3.916 13.108 16.331 30.897 28.48 50.704 34.768v15.115h-24c-5.522 0-10 4.477-10 10v7.353c-18.749 10.313-38.935 17.742-59.839 22.094zm145.556-71.908c-4.521 1.06-7.717 5.092-7.717 9.736v32.725c0 5.523 4.478 10 10 10h24v24h-24c-5.522 0-10 4.477-10 10v30h-24v-30c0-5.523-4.478-10-10-10h-24v-24h24c5.522 0 10-4.477 10-10v-32.725c0-4.644-3.196-8.676-7.717-9.736-39.026-9.151-66.283-43.581-66.283-83.728 0-47.42 38.579-86 86-86s86 38.58 86 86c0 40.147-27.257 74.577-66.283 83.728z"/><path id="XMLID_506_" d="m406 229.811c-34.152 0-61.937 27.785-61.937 61.937s27.784 61.937 61.937 61.937 61.937-27.785 61.937-61.937-27.785-61.937-61.937-61.937zm0 103.873c-23.124 0-41.937-18.813-41.937-41.937s18.813-41.937 41.937-41.937 41.937 18.813 41.937 41.937-18.813 41.937-41.937 41.937z"/><path id="XMLID_505_" d="m364.42 60c2.64 0 5.21-1.07 7.07-2.93 1.859-1.86 2.93-4.44 2.93-7.07s-1.07-5.21-2.93-7.07-4.44-2.93-7.07-2.93-5.21 1.07-7.07 2.93c-1.859 1.86-2.93 4.44-2.93 7.07s1.07 5.21 2.93 7.07 4.44 2.93 7.07 2.93z"/></g></g></g></svg>