<svg id="Capa_1" enable-background="new 0 0 512 512" height="512" viewBox="0 0 512 512" width="512" xmlns="http://www.w3.org/2000/svg"><g><ellipse cx="226" cy="226" rx="15" ry="33.296"/><path d="m196 181c-24.814 0-45 20.186-45 45s20.186 45 45 45c.121 0 .233-.033.353-.035-9.501-12.566-15.353-28.033-15.353-44.965s5.852-32.399 15.353-44.965c-.12-.002-.232-.035-.353-.035z"/><path d="m176.605 65.395 4.395 4.394v-69.789h-30v69.789l4.395-4.395c5.859-5.859 15.351-5.859 21.21.001z"/><path d="m436 0h-225v106c0 6-3.6 11.4-9.3 13.799-5.4 2.401-12.001 1.201-16.199-3.3l-19.501-19.2-19.501 19.2c-4.199 4.501-10.499 5.7-16.199 3.3-5.7-2.399-9.3-7.799-9.3-13.799v-106h-15c-24.901 0-45 21.099-45 46v384.399c9-5.099 18.9-8.399 30-8.399h360v-407c0-8.401-6.599-15-15-15zm-45 166c0 8.399-6.599 15-15 15s-15-6.601-15-15v-23.701l-42.599 42.301c8.098 11.999 12.599 26.1 12.599 41.4 0 41.4-33.6 75-75 75-10.8 0-20.7-2.401-30-6.301-4.799 2.1-9.901 3.6-15 4.801v31.5h15c8.401 0 15 6.599 15 15 0 8.399-6.599 15-15 15h-15v15c0 8.399-6.599 15-15 15s-15-6.601-15-15v-15h-15c-8.401 0-15-6.601-15-15 0-8.401 6.599-15 15-15h15v-31.5c-34.2-6.901-60-37.202-60-73.5 0-41.4 33.6-75 75-75 10.8 0 20.7 2.399 30 6.299 9.3-3.9 19.2-6.299 30-6.299 15.3 0 29.399 4.499 41.4 12.599l42.299-42.599h-23.699c-8.401 0-15-6.601-15-15 0-8.401 6.599-15 15-15h60c8.401 0 15 6.599 15 15z"/><path d="m256 181c-.121 0-.233.033-.353.035 9.501 12.566 15.353 28.033 15.353 44.965s-5.852 32.399-15.353 44.965c.121.002.233.035.353.035 24.814 0 45-20.186 45-45s-20.186-45-45-45z"/><path d="m61 482c0 16.567 13.431 30 30 30h345c8.284 0 15-6.716 15-15v-45h-360c-16.569 0-30 13.431-30 30z"/></g></svg>