<svg id="Capa_1" enable-background="new 0 0 512 512" height="512" viewBox="0 0 512 512" width="512" xmlns="http://www.w3.org/2000/svg"><g><path d="m411.684 422h-155.684-165c-16.5 0-30 43.5-30 60 0 15.194 12.426 30 30 30h165 180c8.401 0 15-6.601 15-15v-15z" fill="#453d83"/><path d="m451 497v-15l-39.316-60h-155.684v90h180c8.401 0 15-6.601 15-15z" fill="#2d2755"/><path d="m418.079 437h-162.079-117.158l-32.842 15c-8.284 0-15 6.714-15 15 0 8.284 6.716 15 15 15h150 195v-30z" fill="#d5e8fe"/><path d="m451 452-32.921-15h-162.079v45h195z" fill="#b5dbff"/><path d="m436 0h-180-45l-30 30h-30l-30-30h-15c-24.901 0-45 20.099-45 45v437c0-16.5 13.5-30 30-30h165 195v-437c0-8.401-6.599-15-15-15z" fill="#5f55af"/><path d="m451 15c0-8.401-6.599-15-15-15h-180v452h195z" fill="#453d83"/><path d="m226 331h-15v-45c0-8.291-6.709-15-15-15s-15 6.709-15 15v45h-15c-8.291 0-15 6.709-15 15s6.709 15 15 15h15v15c0 8.291 6.709 15 15 15s15-6.709 15-15v-15h15c8.291 0 15-6.709 15-15s-6.709-15-15-15z" fill="#f9f"/><path d="m376 91h-60c-8.291 0-15 6.709-15 15s6.709 15 15 15h23.789l-51.973 51.973c-5.859 5.859-5.859 15.352 0 21.211 2.93 2.93 6.768 4.395 10.605 4.395s7.676-1.465 10.605-4.395l51.974-51.973v23.789c0 8.291 6.709 15 15 15s15-6.709 15-15v-60c0-8.291-6.709-15-15-15z" fill="#aa80ff"/><path d="m121 0v106c0 6.064 3.647 11.543 9.258 13.857 5.625 2.329 12.041 1.055 16.348-3.252l19.394-19.394 19.395 19.395c4.33 4.33 10.82 5.559 16.348 3.252 5.61-2.314 9.258-7.793 9.258-13.857v-106.001z" fill="#e63950"/><path d="m256 151c-41.768 0-75 34.993-75 75 0 16.932 5.852 32.399 15.353 44.965l-.353 26.697 30-3.019c9.203 4.039 19.323 6.357 30 6.357 41.353 0 75-33.647 75-75s-33.647-75-75-75zm0 120c-.121 0-9-11.801-9-11.801l-21 .097c-9.139-8.243-15-20.048-15-33.296 0-24.589 20.424-44.775 44.647-44.965.121-.002.233-.035.353-.035 24.814 0 45 20.186 45 45s-20.186 45-45 45z" fill="#ccb3ff"/><path d="m331 226c0-41.353-33.647-75-75-75v30c24.814 0 45 20.186 45 45s-20.186 45-45 45v30c41.353 0 75-33.647 75-75z" fill="#aa80ff"/><path d="m271 226c0 16.24-6.06 33.21-15 45-11.42-.09-22.1-4.58-30-11.7 9.14-8.25 15-20.05 15-33.3 0-24.61-20.44-44.77-44.65-44.97-.12 0-.23-.03-.35-.03-24.81 0-45 20.19-45 45s20.19 45 45 45c.12 0 .23-.03.35-.03 7.72 10.2 17.8 18.47 29.65 23.67-9.2 4.04-19.32 6.36-30 6.36-41.35 0-75-33.65-75-75s33.65-75 75-75c24.92 0 46.44 11.64 60 30 9.33 12.62 15 28.81 15 45z" fill="#f9f"/></g></svg>