<svg id="Capa_1" enable-background="new 0 0 512 512" height="512" viewBox="0 0 512 512" width="512" xmlns="http://www.w3.org/2000/svg"><g><g><path d="m446.672 209.978c0-85.898-69.883-155.781-155.781-155.781-42.489 0-81.052 17.106-109.185 44.784l-56.27-56.27h12.897c9.723 0 17.605-7.882 17.605-17.605s-7.882-17.606-17.605-17.606h-55.4c-9.723 0-17.605 7.882-17.605 17.605v55.399c0 9.723 7.882 17.605 17.605 17.605s17.605-7.882 17.605-17.605v-12.896l58.886 58.886c-15.387 24.146-24.314 52.791-24.314 83.484 0 79.945 60.537 146.007 138.176 154.78v71.041h-13.363c-9.723 0-17.605 7.882-17.605 17.605s7.882 17.605 17.605 17.605h13.363v15.885c0 9.723 7.882 17.605 17.605 17.605s17.605-7.882 17.605-17.605v-15.884h13.364c9.723 0 17.605-7.882 17.605-17.605s-7.882-17.605-17.605-17.605h-13.364v-71.041c77.639-8.775 138.176-74.836 138.176-154.781zm-276.351 0c0-66.483 54.087-120.57 120.57-120.57s120.57 54.087 120.57 120.57-54.087 120.57-120.57 120.57c-66.482 0-120.57-54.087-120.57-120.57z" fill="#21c1f8"/></g><g><path d="m308.5 364.76v71.04h13.36c9.72 0 17.61 7.88 17.61 17.6 0 9.73-7.89 17.61-17.61 17.61h-13.36v15.88c0 9.73-7.89 17.61-17.61 17.61-5.72 0-10.8-2.73-14.01-6.95 2.25-2.95 3.59-6.65 3.59-10.66v-15.88h13.36c9.73 0 17.61-7.88 17.61-17.61 0-9.72-7.88-17.6-17.61-17.6h-13.36v-71.04c77.64-8.78 138.18-74.84 138.18-154.78 0-81.17-62.41-148.04-141.76-155.15 4.61-.42 9.28-.63 14-.63 85.9 0 155.78 69.88 155.78 155.78 0 79.94-60.53 146-138.17 154.78z" fill="#1faaee"/></g><g><path d="m135.111 209.978c0 79.945 60.537 146.007 138.176 154.78v71.041h-13.363c-9.723 0-17.605 7.882-17.605 17.605s7.882 17.605 17.605 17.605h13.363v15.885c0 9.723 7.882 17.605 17.605 17.605s17.605-7.882 17.605-17.605v-15.884h13.364c9.723 0 17.605-7.882 17.605-17.605s-7.882-17.605-17.605-17.605h-13.364v-71.041c77.639-8.773 138.176-74.835 138.176-154.78h-35.211c0 66.483-54.087 120.57-120.57 120.57s-120.57-54.087-120.57-120.57h-35.211zm311.561 0h-35.211" fill="#fb3a82"/></g><g><path d="m446.67 209.98c0 79.94-60.53 146-138.17 154.78v71.04h12.909c9.875 0 18.252 8.081 18.058 17.954-.188 9.567-8.004 17.256-17.607 17.256h-13.36v15.88c0 9.73-7.89 17.61-17.61 17.61-5.72 0-10.8-2.73-14.01-6.95 2.25-2.95 3.59-6.65 3.59-10.66v-5.88c0-5.523 4.477-10 10-10h2.898c9.867 0 18.25-8.075 18.069-17.94-.176-9.568-7.987-17.27-17.607-17.27h-3.36c-5.523 0-10-4.477-10-10v-52.36c0-4.89 3.54-9.044 8.362-9.857 73.581-12.404 129.818-76.557 129.818-153.603z" fill="#fb1466"/></g><g><path d="m258.591 196.429h64.601c9.723 0 17.605-7.882 17.605-17.605s-7.882-17.605-17.605-17.605h-64.601c-9.723 0-17.605 7.882-17.605 17.605s7.881 17.605 17.605 17.605z" fill="#fca62f"/><path d="m340.8 178.82c0 9.73-7.88 17.61-17.61 17.61h-24.64c9.72 0 17.6-7.88 17.6-17.61 0-9.72-7.88-17.6-17.6-17.6h24.64c9.73 0 17.61 7.88 17.61 17.6z" fill="#f98824"/><path d="m340.797 241.131c0-9.723-7.882-17.605-17.605-17.605h-64.601c-9.723 0-17.605 7.882-17.605 17.605s7.882 17.605 17.605 17.605h64.601c9.723.001 17.605-7.881 17.605-17.605z" fill="#fca62f"/><path d="m340.8 241.13c0 9.72-7.88 17.61-17.61 17.61h-24.64c9.72 0 17.6-7.89 17.6-17.61s-7.88-17.6-17.6-17.6h24.64c9.73 0 17.61 7.88 17.61 17.6z" fill="#f98824"/></g><g><path d="m290.892 46.697c-40.554 0-78.984 14.803-109.025 41.837l-38.777-38.776c11.577-2.229 20.349-12.436 20.349-24.653-.001-13.843-11.263-25.105-25.106-25.105h-55.399c-13.843 0-25.106 11.262-25.106 25.105v55.399c0 13.843 11.263 25.105 25.105 25.105 12.216 0 22.423-8.772 24.652-20.348l42.359 42.359c-14.63 24.949-22.335 53.293-22.335 82.356 0 40.325 14.88 79.069 41.898 109.096 25.298 28.116 59.277 46.504 96.277 52.245v7.823c0 4.142 3.357 7.5 7.5 7.5s7.5-3.358 7.5-7.5v-14.384c0-3.816-2.865-7.024-6.658-7.453-72.481-8.191-127.728-67.654-131.326-139.828h20.245c3.897 67.14 59.745 120.57 127.845 120.57 68.099 0 123.947-53.43 127.844-120.57h20.227c-1.417 28.462-10.873 55.585-27.603 78.852-2.419 3.363-1.652 8.049 1.71 10.468 3.36 2.416 8.05 1.652 10.468-1.711 20.042-27.87 30.635-60.758 30.635-95.109.001-90.031-73.246-163.278-163.279-163.278zm-126.163 74.493-58.887-58.886c-2.146-2.146-5.372-2.788-8.174-1.626-2.803 1.161-4.63 3.896-4.63 6.929v12.897c0 5.572-4.533 10.105-10.104 10.105-5.572 0-10.105-4.533-10.105-10.105v-55.399c-.001-5.572 4.532-10.105 10.105-10.105h55.399c5.572 0 10.105 4.533 10.105 10.105s-4.533 10.105-10.105 10.105h-12.897c-3.033 0-5.769 1.827-6.929 4.63-1.161 2.803-.52 6.028 1.625 8.173l56.271 56.27c2.913 2.913 7.629 2.932 10.563.043 27.942-27.49 64.851-42.63 103.926-42.63 79.247 0 144.172 62.49 148.092 140.781h-20.248c-3.897-67.14-59.745-120.57-127.844-120.57-68.1 0-123.948 53.43-127.845 120.57h-20.225c1.289-25.574 9.135-50.31 22.928-71.953 1.89-2.966 1.465-6.847-1.021-9.334zm126.163 201.858c-62.348 0-113.07-50.723-113.07-113.07s50.723-113.07 113.07-113.07 113.069 50.723 113.069 113.07-50.723 113.07-113.069 113.07z"/><path d="m388.688 321.324c-22.902 20.136-50.923 32.578-81.033 35.981-3.793.429-6.658 3.636-6.658 7.453v71.041c0 4.142 3.357 7.5 7.5 7.5h13.364c5.572 0 10.105 4.533 10.105 10.105s-4.533 10.105-10.105 10.105h-13.364c-4.143 0-7.5 3.358-7.5 7.5v15.885c0 5.572-4.533 10.105-10.105 10.105s-10.105-4.533-10.105-10.105v-15.885c0-4.142-3.357-7.5-7.5-7.5h-13.363c-5.572 0-10.105-4.533-10.105-10.105s4.533-10.105 10.105-10.105h13.363c4.143 0 7.5-3.358 7.5-7.5v-21.262c0-4.142-3.357-7.5-7.5-7.5s-7.5 3.358-7.5 7.5v13.762h-5.863c-13.843 0-25.105 11.262-25.105 25.105s11.263 25.105 25.105 25.105h5.863v8.385c0 13.843 11.263 25.105 25.105 25.105s25.105-11.262 25.105-25.105v-8.385h5.864c13.843 0 25.105-11.262 25.105-25.105s-11.263-25.105-25.105-25.105h-5.864v-56.979c30.641-4.738 59.073-18.049 82.596-38.731 3.111-2.735 3.415-7.474.681-10.584-2.735-3.112-7.475-3.416-10.586-.681z"/><path d="m323.192 153.719h-64.602c-13.843 0-25.105 11.262-25.105 25.105s11.263 25.105 25.105 25.105h64.602c13.843 0 25.104-11.262 25.104-25.105.001-13.843-11.261-25.105-25.104-25.105zm0 35.21h-64.602c-5.572 0-10.105-4.533-10.105-10.105s4.533-10.105 10.105-10.105h64.602c5.571 0 10.104 4.533 10.104 10.105.001 5.572-4.532 10.105-10.104 10.105z"/><path d="m323.192 216.026h-15.547c-4.143 0-7.5 3.358-7.5 7.5s3.357 7.5 7.5 7.5h15.547c5.571 0 10.104 4.533 10.104 10.105s-4.533 10.105-10.104 10.105h-64.602c-5.572 0-10.105-4.533-10.105-10.105s4.533-10.105 10.105-10.105h13.659c4.143 0 7.5-3.358 7.5-7.5s-3.357-7.5-7.5-7.5h-13.659c-13.843 0-25.105 11.262-25.105 25.105s11.263 25.105 25.105 25.105h64.602c13.843 0 25.104-11.262 25.104-25.105s-11.261-25.105-25.104-25.105z"/></g></g></svg>